<?xml version="1.0" standalone="no"?>
<!DOCTYPE svg PUBLIC "-//W3C//DTD SVG 20010904//EN"
 "http://www.w3.org/TR/2001/REC-SVG-20010904/DTD/svg10.dtd">
<svg version="1.0" xmlns="http://www.w3.org/2000/svg"
 width="100.000000pt" height="100.000000pt" viewBox="0 0 100.000000 100.000000"
 preserveAspectRatio="xMidYMid meet">

<g transform="translate(0.000000,100.000000) scale(0.100000,-0.100000)"
fill="#000000" stroke="none">
<path d="M371 927 c-11 -14 -38 -82 -102 -260 -37 -103 -38 -108 -21 -125 26
-26 348 -145 371 -137 11 3 22 13 26 23 65 165 125 346 120 361 -4 14 -55 37
-183 85 -97 36 -182 66 -188 66 -6 0 -17 -6 -23 -13z m299 -165 c0 -5 -32 -23
-70 -42 -43 -21 -69 -39 -66 -46 3 -7 8 -28 11 -47 l7 -34 -69 -6 c-37 -4 -86
-7 -108 -7 l-40 1 68 37 c56 30 67 41 62 57 -3 11 -8 32 -11 47 l-6 26 88 7
c49 3 96 8 104 9 27 6 30 6 30 -2z"/>
<path d="M88 299 c-24 -14 -22 -48 4 -76 l21 -23 -21 0 c-15 0 -22 -6 -22 -19
0 -24 23 -33 54 -21 35 13 40 39 15 74 -15 20 -18 31 -11 34 7 2 12 12 12 23
0 21 -24 25 -52 8z"/>
<path d="M180 230 c0 -73 2 -80 20 -80 18 0 20 7 20 80 0 73 -2 80 -20 80 -18
0 -20 -7 -20 -80z"/>
<path d="M282 300 c-28 -12 -45 -54 -36 -93 8 -37 60 -62 99 -47 21 8 24 13
16 27 -5 10 -21 17 -38 18 -23 0 -28 4 -28 25 0 20 6 26 28 28 32 4 47 29 26
43 -17 11 -37 10 -67 -1z"/>
<path d="M386 293 c-3 -10 -4 -45 -3 -78 l2 -60 43 -3 c37 -3 42 -1 42 17 0
14 -6 21 -20 21 -11 0 -20 5 -20 10 0 6 9 10 20 10 13 0 20 7 20 20 0 13 -7
20 -20 20 -11 0 -20 5 -20 10 0 6 9 10 20 10 13 0 20 7 20 20 0 17 -7 20 -39
20 -29 0 -41 -5 -45 -17z"/>
<path d="M490 230 c0 -75 1 -80 21 -80 12 0 23 8 26 19 3 11 16 22 29 25 50
13 56 88 8 106 -14 6 -39 10 -55 10 l-29 0 0 -80z m62 8 c-9 -9 -12 -7 -12 12
0 19 3 21 12 12 9 -9 9 -15 0 -24z"/>
<path d="M747 303 c-13 -12 -7 -33 8 -33 12 0 15 -13 15 -61 0 -57 1 -60 23
-57 19 3 22 10 25 61 2 31 7 57 12 57 6 0 10 9 10 20 0 17 -7 20 -43 20 -24 0
-47 -3 -50 -7z"/>
<path d="M656 284 c-4 -10 -1 -14 6 -12 15 5 23 28 10 28 -5 0 -13 -7 -16 -16z"/>
<path d="M684 239 c-3 -6 -1 -16 5 -22 18 -18 13 -31 -16 -49 l-28 -17 53 -1
c28 0 52 3 52 6 0 7 -51 94 -55 94 -2 0 -7 -5 -11 -11z"/>
<path d="M611 192 c-24 -47 -16 -54 18 -18 18 19 21 29 13 42 -8 15 -13 12
-31 -24z"/>
</g>
</svg>
